<svg id="Capa_1" data-name="Capa 1" xmlns="http://www.w3.org/2000/svg" width="544.14" height="137.14" viewBox="0 0 544.14 137.14">
  <path d="M70.86.32C31.86,4.2-.13,31.5,0,67.79.15,110.87,37,135,72,137c40.25,2.33,65.94-35.62,65.32-71.94-.65-38.5-28.4-68.55-66.46-64.77" style="fill: #fff"/>
  <path d="M531.88,99.85H124V32.71H531.88A12.26,12.26,0,0,1,544.14,45V87.59a12.26,12.26,0,0,1-12.26,12.26" style="fill: #fff"/>
  <path d="M17.67,42.6l1.5,5.49s.35.83,1.12.64a3.74,3.74,0,0,0,1.51-1s3.91-3.4,4.48-4.08a4.1,4.1,0,0,0,.91-3.41c-.26-1.64-1.28-.86-1.71-.59s-1.65.89-2,.29a48.39,48.39,0,0,1-1.3-4.88.66.66,0,0,0-1.14-.29A33.36,33.36,0,0,0,15.87,40c-.88,1.46-1.44,3.29-.73,3.23s1.22-.69,1.71-1,.82.39.82.39"/>
  <path d="M24.61,31.11l.44,3.75a1,1,0,0,0,1.45.62,75.39,75.39,0,0,0,6.27-4.36c.95-.78,1.78-2.06,1.4-3.06s-1.59-.26-2,0-1.35.18-1.45-.61a8.8,8.8,0,0,0-.45-2.72c-.29-.31-.68-.22-1.41.19s-5,3.21-6.19,5.1-.78,2.25-.06,1.73a6.93,6.93,0,0,1,1.52-1c.31-.09.5.41.5.41"/>
  <path d="M31.1,22.48a12,12,0,0,1,1.72-1c.5-.16.37-.15.31.43a7,7,0,0,0,.24,2.56c.22.22.62.35,1.43,0s6.5-3.58,7.16-4,1.76-1.53,1.46-2.6c-.11-.39-.42-.25-1.05,0a26.89,26.89,0,0,1-2.53,1.26c-.45,0-.38-1.57-.37-2.09s-.49-.29-1-.07a43.32,43.32,0,0,0-7.51,5c-.88.89.19.56.19.56"/>
  <path d="M44.16,15.84l7-2.87a7.34,7.34,0,0,0,2.21-1.24c.39-.55.24-.71-.77-.44s-2.3,1-2.39.79a2.05,2.05,0,0,1-.12-.45s-7.38,2.74-8.73,3.49-.85.54-.21.42,1.76-1,1.77-.5c0,1.54,1.27.8,1.27.8"/>
  <path d="M54.78,10.11l6.44-1.85c.88-.25.47-.45-.42-.25s-5.57,1.48-6.2,1.71.18.39.18.39"/>
  <path d="M22.27,28.91s4.46-4.19,5-4.64,1.15-.74.52-.05-4.94,4.64-5.42,5-.1-.34-.1-.34"/>
  <path d="M20.07,32.44a44.77,44.77,0,0,1-2.34,4,18.77,18.77,0,0,1-2.54,2.81c-.54.45-.4-.07-.19-.5s3.9-6.21,4.62-6.73.45.47.45.47"/>
  <path d="M13.37,43.16a21.42,21.42,0,0,1-.72,3.34,44.26,44.26,0,0,1-2.4,4c-.39.55-.76.75-.72,0a7.81,7.81,0,0,1,.66-2.13,56.47,56.47,0,0,1,2.49-5.45c.46-.5.72.35.69.28"/>
  <path d="M13,55.6s2.66,6.53,3.11,7.06,1,1,2.35-.55,3.46-3.36,3.84-4.54a6.17,6.17,0,0,0-.83-4.29c-.61-.81-1.22.17-1.51.42-.54.45-1.53.89-2.06-.33s-1.76-5.47-2-6.19-.79-.67-1.21-.29a36.73,36.73,0,0,0-3.71,5,5.9,5.9,0,0,0-.43,3c.18,1,.51,1.09.88.78.77-.64,1.27-.86,1.61-.14"/>
  <path d="M18.2,77.63a40.34,40.34,0,0,0,2.71-4.15c.35-.89.63-1.32.33-2.15a10.49,10.49,0,0,0-1.88-3.28c-.57-.4-1-.31-1.24.06s-.67.92-1.21.74-4.1-6.57-4.57-7.79-1.11-1.11-1.4-.8a48.43,48.43,0,0,0-2.52,4.65,13.72,13.72,0,0,0,.43,4.27c.19.44.75.8.9.44s1-1.13,1.3-.64,3.89,7.57,5.19,8.66,2,0,2,0"/>
  <path d="M11.7,75.07S16,82,17.29,83.23s1.74.42,1.91.17a1.09,1.09,0,0,1,1.5,0A16.82,16.82,0,0,1,23.15,87a2.55,2.55,0,0,1,0,1.9A22.43,22.43,0,0,1,21.45,92c-.34.44-.84,1.23-2,0a96.18,96.18,0,0,1-6.38-8.15c-.5-.93-1.13-1.33-1.41-.9s-.56.74-1,.21a17.43,17.43,0,0,1-1.56-3.88,5.31,5.31,0,0,1,.17-1.85,13.38,13.38,0,0,1,1.12-2.69c.39-.55,1.35.34,1.35.34"/>
  <path d="M14.64,89S21,96.27,22,97s1.27.8,1.55.43a1,1,0,0,1,1.62-.09,44.68,44.68,0,0,1,3.39,3.83,2.92,2.92,0,0,1,.25,2.1c-.14.47-.35,1.47-.91,1.69a2.08,2.08,0,0,1-2.49-.63l-1-1.06S17.12,96.22,16.83,96s-.7.18-1,.15a3.56,3.56,0,0,1-2.24-1.8c-.6-1.21-1-4.91-.72-5.62s1.8.35,1.8.35"/>
  <path d="M18.59,102.69s0-1.32.05-1.84.6-.46,1.11,0,9.12,8.19,10.06,8.39.56-.22,1.08-.21a19.52,19.52,0,0,1,5,3.28c.61.8.7,2.11.17,2.56a2,2,0,0,1-2.22,0c-.77-.45-9.59-7.17-10-7.65s-.47-.13-.92-.08-4.31-4.44-4.31-4.44"/>
  <path d="M44,123.23s1.33.23,1.28-.23-1.46-1.87-2.94-2.77a18.67,18.67,0,0,0-4.19-1.86c-1.71-.59-7-4.07-8.8-5.46s-2.89-2.38-3.11-2-.57.68.08,1.19,4.06,3.54,4.46,3.62a6.18,6.18,0,0,1,2.54,1c.8.67,1.5,1.64,2.13,2.05S44,123.23,44,123.23"/>
  <path d="M16.31,100.43a6.1,6.1,0,0,0-1-2.55c-.66-.69-2.9-4.73-3.27-5.1s-.45,0-.26.54,3.3,6.42,3.74,6.89.75.22.75.22"/>
  <path d="M10.84,88.93a16.39,16.39,0,0,0-1.06-4.1c-.79-1.71-1.59-4-1.88-4.31s-.33.55-.12,1.22,2.46,7.64,2.81,7.78.25-.59.25-.59"/>
  <path d="M7.71,76.69l.44-2.39a12.48,12.48,0,0,0-.18-2A37.76,37.76,0,0,0,7,67.57c-.23-.33-.64.11-.69.81a70.06,70.06,0,0,0,.39,7.71c.25,1,1,.6,1,.6"/>
  <path d="M6.82,62.42S6.68,64,7,64s1.84-2.69,2-3.57A32.72,32.72,0,0,0,8.88,55c-.13-.56-.46-.07-.67.35s-1.39,7.08-1.39,7.08"/>
  <path d="M23.77,109.57a20.65,20.65,0,0,0-1.71-1.85c-.81-.73-3.34-3.43-3.93-4s-.54-.12-.07.52,5.28,6.07,5.6,6,.11-.7.11-.7"/>
  <path d="M115.89,69.62c0-22-14.53-39.84-32.45-39.84S51,47.62,51,69.62s14.53,39.85,32.45,39.85,32.45-17.84,32.45-39.85"/>
  <path d="M96.29,28.82l-.17-.08a4,4,0,0,0-2.47-.34l-.57.1-3,.55s28.44,6.6,27.17,42.55c-1.25,35.53-31.34,39.62-31.34,39.62l2.79.17.5,0a10.65,10.65,0,0,0,3.51-.35h0c10.09-2.84,25-14.81,26.19-39.46,1.36-27.72-15.17-39.1-22.59-42.78"/>
  <polygon points="166.36 67.28 163.16 82.58 150.96 82.58 156.43 56.46 150.86 52.84 171.17 52.84 177.75 68.43 181.01 52.84 193.22 52.84 186.99 82.58 172.82 82.58 166.36 67.28"/>
  <polygon points="195.88 52.84 223.62 52.84 222.21 59.59 206.67 59.59 205.74 64.01 218.57 64.01 217.15 70.77 204.33 70.77 203.27 75.82 218.81 75.82 217.4 82.58 189.65 82.58 195.88 52.84"/>
  <path d="M247.27,52.84h12.2l-3.12,14.91C254.24,77.82,246,82.92,236.51,82.92s-15.48-5-13.34-15.17l3.12-14.91h12.2l-3.12,14.91c-.67,3.19-1.55,7.6,2.73,7.6s5.26-3.86,6-7.6Z"/>
  <polygon points="291.34 69.66 283.25 82.58 273.59 82.58 270.86 69.45 268.11 82.58 255.91 82.58 262.14 52.84 276.56 52.84 280.56 72.25 292.73 52.84 307.07 52.84 300.84 82.58 288.64 82.58 291.34 69.66"/>
  <path d="M343.94,82.58h-12.2l-1.09-5.65h-12.2L315,82.58h-12.2l18.07-29.74h17.41ZM327.75,61.63l-5.17,8.54h6.81Z"/>
  <path d="M345.84,52.84h23.65c9.66,0,16.42,5,14.34,14.91-2.13,10.15-11,14.83-20.57,14.83H345.94l5.47-26.14ZM363,59.38l-3.41,16.27h3.16c4.5,0,7.67-2.38,8.83-7.9,1.21-5.78-1.14-8.37-6.62-8.37Z"/>
  <polygon points="389.61 52.84 401.82 52.84 395.59 82.58 383.38 82.58 389.61 52.84"/>
  <polygon points="404.49 52.84 432.23 52.84 430.81 59.59 415.27 59.59 414.35 64.01 427.17 64.01 425.76 70.77 412.93 70.77 411.87 75.82 427.42 75.82 426 82.58 398.26 82.58 404.49 52.84"/>
  <path d="M458.82,74.08c-1.65,6.8-9.89,8.92-17.59,8.92-1.38,0-2.79-.08-4.14-.21A27.41,27.41,0,0,1,429.27,81l1.8-7.56a26.38,26.38,0,0,0,10.35,2c2.58,0,5.34-.17,5.71-1.53.57-2.08-5.92-3.61-8-4.12-4.15-1-7.5-2.89-6.11-8.71,1.65-6.8,8.52-8.54,16.31-8.54,3.83,0,7.45.17,10.75,1.83L458.47,61a12.51,12.51,0,0,0-6.66-1.79c-3.29,0-6.71.17-7.11,1.87-.32,1.28,4.73,2,9.13,3.4,5.31,1.62,6,5.57,5,9.56"/>
  <polygon points="465.75 52.84 493.5 52.84 492.08 59.59 476.54 59.59 475.62 64.01 488.44 64.01 487.03 70.77 474.2 70.77 473.14 75.82 488.68 75.82 487.27 82.58 459.53 82.58 465.75 52.84"/>
  <polygon points="496.17 52.84 508.37 52.84 503.79 74.67 517.64 74.67 515.99 82.58 489.94 82.58 496.17 52.84"/>
  <path d="M102.44,52.43l-21-2.3-4.27,22L74.54,51.47a2.41,2.41,0,0,0-2.19-2.36l-7-.59.81,2.36a3.73,3.73,0,0,1,.15,2.57L59.36,88.3l7.74-.83L71.1,67l2.33,17.11c.14,1.4,1,2.46,3.15,2.18l5.5-.54,6.21-31.95a3.24,3.24,0,0,0,2.88,2.63l8.07.78a2.33,2.33,0,0,1,2.14,3.09L98,77.74c-.34,1.33-.82,1.64-2.1,1.8l-1.65.21L97.3,64c.34-1.85,0-3.49-2.38-3.56l-4.41-.09L85.44,85.56l9.64-.91c7.52-.93,10-3,11-8.75l3-15.91c.57-3.92.32-6.83-6.64-7.56" style="fill: #ffe612"/>
  <path d="M84.64,21.85c-20.74,0-37.55,21-37.55,47s16.81,47,37.55,47,37.55-21,37.55-47-16.81-47-37.55-47m.67,91.42c-19.34,0-35-19.84-35-44.3S66,24.66,85.31,24.66s35,19.84,35,44.31-15.68,44.3-35,44.3"/>
  <path d="M130.39,64l1-.09-.57-7.07-.76.22-.44-3,.72-.53-1.4-6-.64.44-1-2.9.67-1L126,38.53l-.77.83-1.36-2.7.71-1.37-3.11-5-.57,1.05-1.77-2.45.33-1.63-3.68-4.65-.16,1.63-2.24-2.1L113,19.8l-3.9-3.55-.12,2-2.82-1.81a4.77,4.77,0,0,0,0-1.38,3.87,3.87,0,0,0-.32-1.27l-4.7-3a7.07,7.07,0,0,1,.3,1.12c0,.38.11,1.68.11,1.68l-3.12-1.4s-.11-.91-.27-1.59a5.81,5.81,0,0,0-.79-1.53L92.15,7.31a7,7,0,0,1,.62,1.62A15.14,15.14,0,0,1,93,10.52l-3.56-.75A11.91,11.91,0,0,0,89,7.9a2.37,2.37,0,0,0-1.65-1.54l-5.73-.62a7.32,7.32,0,0,1,1.47,1.47,4.12,4.12,0,0,1,.61,2.17l-3.55.17a18.26,18.26,0,0,0-.92-1.91A7.73,7.73,0,0,0,77.37,6l-9.22.76S71,7,71.83,7.7a13.72,13.72,0,0,1,2.11,3.1l-3.54,1s-1.32-1.64-2.52-2.91a3.88,3.88,0,0,0-2.75-1.21s-6.1,1.53-7.24,2c-.41.18-1.22,1.31-.79,1.45s3,0,4.19.15,2.76,3.51,2.76,3.51l-3.17,1.89s-2.05-2-2.74-2.66S53.57,13,53.57,13s-5.07,1.33-6.15,2.47c-.56.58-.82,2.85-.43,3s1.56-.23,3.24-.14c.17-.14,4.73-3.85,5.38-4.19s.76.11-.29,1c-.79.64-2.91,2.57-3.88,3.48,1.73.76,3.43,3.32,3.43,3.32L52,24.59a25.34,25.34,0,0,0-3.41-2.37c-1.58-.86-3.07-1.5-4.15-1.31-1.31.23-5.45,2.18-6.54,3.58-.7.9-.48,3.88.07,4.36.4.33,2.47-.67,4.11-.58.51-.65,3.69-4.72,4.21-5.15s.77-.07-.06,1c-.67.84-2.45,3.45-3.12,4.43a14.89,14.89,0,0,1,3.57,2.59l-2.46,3.51s-5.7-3.3-7.86-3.19c-1.92.1-5.32,2.86-6,4.23s0,5.32.73,5.44,3.07-.51,4-.59a1.37,1.37,0,0,1,.37,0c.57-1.19,2.49-5.18,2.87-5.67s.74-.22.16,1c-.48,1-1.68,4-2.1,5,1.6.67,3.94,2,3.94,2l-1.75,4.37s-6.63-3.08-8.93-2.64c-1.78.34-4.67,3.87-5,4.67s.77,6.06,2,6.33c.66.15,2.31-.48,3.45-.69.15-.56,1.47-5.79,1.77-6.41s.68-.36.35.92c-.28,1.1-.91,4.5-1.09,5.46a39.59,39.59,0,0,1,5,1.24l-1,5a31.63,31.63,0,0,1-5.68-.25c-.92-.27-2.61-1.54-3.56-1.36-1.6.3-3.75,3.63-4.17,4.43S23,70.33,25,71.07c.78.28,2.36-.65,3.25-.89.08-1.19.41-5.78.59-6.39s.61-.46.5.86c-.08,1.07-.09,4.26-.1,5.4a45.75,45.75,0,0,1,5,.18l.3,5.56s-3.12.13-5.09.31-3.39-.85-4.56-1c-.78-.08-3.18,2.88-3.08,4.1.18,2.12,3.95,7,5.11,7.2.74.11,2.13-.6,2.93-.94-.2-1.55-.7-5.43-.65-6s.5-.57.67.74c.12,1,.66,3.72.92,5C32.28,85,36,84.54,36,84.54l1.27,4.86a36.12,36.12,0,0,1-5,1.61c-1.79.31-3.43-1.26-4.55-1S25,93.19,25.21,93.86c.61,2,5.08,5.8,6.39,6.23a3.76,3.76,0,0,0,2.34-.33c-.35-1.12-1.74-5.55-1.8-6.18s.39-.65.78.62c.34,1.09,1.61,4.35,2,5.24.25-.09.51-.17.79-.25,1.94-.56,4.52-1.56,4.52-1.56l1.92,4.5a12.28,12.28,0,0,1-4.29,2c-2.21.43-4-.46-4.84-.4s-1.77,2.14-1.48,2.89c.76,2,4.93,5,7.25,5.47a3.17,3.17,0,0,0,1.23,0c-.76-1.38-2.64-4.84-2.81-5.39-.21-.7.26-.71.9.46.52,1,2.29,3.75,2.88,4.68.53-.18,1.13-.42,1.86-.74a17.4,17.4,0,0,0,3.65-2.25l2.7,3.66a11.73,11.73,0,0,1-3.78,2.64c-2.08.8-3.54-.66-4.65-.34a2.13,2.13,0,0,0-1.09,1.86c.13.54,1.59,1.69,1.59,1.69s6.2,3.19,8.17,2.86a2.8,2.8,0,0,0,.57-.17c-1.44-1.14-3.82-3-4.15-3.44-.47-.56,0-.75,1,.09.75.6,2.91,2.1,4.07,2.9a24.23,24.23,0,0,0,3.9-3l3,2.63s-2.13,2.65-3.54,3.23-4.31-.37-4.31-.37l-.05,1a14,14,0,0,0,5.72,2.77c3.11.56,5.46-.19,6.25-.8a14.86,14.86,0,0,0,2.07-2.4l3.33,1.68a15.82,15.82,0,0,1-2.25,3c-.88.69-3.58.63-3.58.63a23.21,23.21,0,0,0,4.33,1.37,18,18,0,0,0,4.07.55A11,11,0,0,0,72,129.34a14,14,0,0,0,1.48-2.2l3.17.33a5.16,5.16,0,0,1-.61,2.2,5,5,0,0,1-2.6,1.61l7.46-.22a16.15,16.15,0,0,0,1.4-1.43,10.92,10.92,0,0,0,.88-2.07l3.11-.2a3.35,3.35,0,0,1-.24,1.63,6.92,6.92,0,0,1-1.63,1.68l7.17-2,1-2.84,2.59-.85a2.79,2.79,0,0,1-.2,1.24,11,11,0,0,1-.62,1.36l6.43-3,.32-2.48,2.86-1.56,0,1.91,3.8-2.49,1-1.39.46-2,2.29-2,.18,1.52,3.9-4.57-.27-1.51,2.41-2.44.27.82,3.16-5-.29-1,1.69-2.61.43.66,2.55-5.67-.36-.89L126.42,91l.57.4,1.69-5.66-.69-.63.6-2.35,1-.47,1-6.07-.74-.39.28-2.86.92-.31.23-6.15-.71-.16ZM84.59,116.7c-21.18,0-38.35-21.46-38.35-47.94S63.41,20.81,84.59,20.81s38.34,21.47,38.34,48S105.76,116.7,84.59,116.7"/>
</svg>
