<?xml version="1.0" standalone="no"?>
<!DOCTYPE svg PUBLIC "-//W3C//DTD SVG 20010904//EN"
 "http://www.w3.org/TR/2001/REC-SVG-20010904/DTD/svg10.dtd">
<svg version="1.0" xmlns="http://www.w3.org/2000/svg"
 width="1024.000000pt" height="1024.000000pt" viewBox="0 0 1024.000000 1024.000000"
 preserveAspectRatio="xMidYMid meet">

<g transform="translate(0.000000,1024.000000) scale(0.100000,-0.100000)"
fill="#000000" stroke="none">
<path d="M5880 6395 l0 -95 34 -17 c19 -8 39 -27 45 -40 7 -16 11 -134 11
-348 l0 -325 -104 0 c-84 0 -106 -3 -117 -16 -10 -12 -16 -58 -19 -148 l-5
-131 -180 0 -180 0 -5 160 c-6 178 -14 206 -75 273 -73 81 -22 77 -975 77
l-845 0 -65 -32 c-53 -26 -97 -64 -229 -197 l-164 -164 36 -44 c20 -25 47 -67
59 -94 23 -48 23 -55 23 -421 0 -205 2 -373 5 -373 3 0 22 16 43 35 l37 35 0
98 c1 408 269 772 652 883 105 30 306 37 419 14 179 -36 319 -108 447 -230
172 -163 263 -343 293 -576 18 -136 -7 -299 -65 -431 -8 -17 36 -18 843 -18
468 0 851 4 851 8 0 4 -4 12 -9 18 -5 5 -19 43 -31 84 -31 107 -39 325 -16
441 33 160 109 307 226 432 124 132 252 212 413 258 71 21 104 24 242 24 177
0 230 -10 365 -68 111 -48 185 -100 285 -202 171 -173 257 -381 259 -630 0
-116 -19 -229 -55 -312 -10 -25 -19 -47 -19 -49 0 -3 114 -4 253 -2 l252 3 80
43 c44 24 150 90 235 147 196 129 260 195 291 296 30 98 23 170 -25 269 l-36
74 0 236 c0 327 -10 373 -90 428 l-33 22 -949 0 -950 0 4 231 3 231 38 32 37
31 0 88 0 87 -770 0 -770 0 0 -95z m1030 -445 l0 -260 -360 0 -360 0 0 260 0
260 360 0 360 0 0 -260z"/>
<path d="M2320 5817 c-15 -8 -44 -47 -74 -102 -170 -313 -301 -520 -452 -710
-118 -149 -366 -394 -484 -477 -105 -74 -285 -170 -399 -213 -90 -34 -115 -56
-106 -93 12 -52 33 -59 182 -66 267 -12 961 -28 1268 -30 280 -1 315 1 360 18
120 44 252 161 309 274 54 106 58 136 57 437 -1 293 -4 331 -28 379 -17 34
-533 564 -566 583 -28 16 -36 16 -67 0z"/>
<path d="M3920 5349 c-261 -68 -460 -270 -526 -534 -22 -91 -22 -265 0 -360
49 -204 198 -390 391 -485 119 -59 189 -75 335 -75 146 0 216 16 335 75 193
95 342 279 391 485 22 92 22 258 0 350 -36 149 -132 301 -251 398 -75 60 -218
131 -308 151 -97 23 -272 20 -367 -5z m344 -408 c75 -37 128 -91 165 -170 22
-47 26 -70 26 -141 0 -74 -4 -92 -29 -143 -53 -104 -160 -179 -276 -193 -147
-17 -312 94 -355 238 -42 144 5 289 124 378 105 79 226 90 345 31z"/>
<path d="M7305 5356 c-270 -62 -469 -256 -546 -531 -9 -33 -14 -100 -13 -200
1 -136 3 -157 27 -224 44 -122 93 -199 186 -292 98 -98 184 -151 306 -188 67
-21 102 -25 215 -25 115 -1 146 2 210 22 210 66 372 204 464 397 51 106 70
192 69 320 0 135 -20 221 -75 335 -34 69 -59 102 -133 175 -103 103 -168 144
-292 188 -79 28 -102 31 -223 34 -89 2 -156 -2 -195 -11z m294 -401 c56 -19
118 -67 158 -119 147 -196 45 -470 -196 -532 -114 -29 -229 3 -314 88 -180
181 -105 495 137 574 50 17 153 12 215 -11z"/>
</g>
</svg>
